<?xml version="1.0" standalone="no"?>
<!DOCTYPE svg PUBLIC "-//W3C//DTD SVG 20010904//EN"
 "http://www.w3.org/TR/2001/REC-SVG-20010904/DTD/svg10.dtd">
<svg version="1.0" xmlns="http://www.w3.org/2000/svg"
 width="190.000000pt" height="190.000000pt" viewBox="0 0 190.000000 190.000000"
 preserveAspectRatio="xMidYMid meet">
<metadata>
Created by potrace 1.11, written by Peter Selinger 2001-2013
</metadata>
<g transform="translate(0.000000,190.000000) scale(0.100000,-0.100000)"
fill="#000000" stroke="none">
<path d="M700 1747 c-3 -3 -23 -7 -45 -10 -165 -21 -358 -141 -472 -292 -110
-146 -162 -313 -157 -501 6 -201 85 -378 233 -525 119 -117 296 -201 453 -215
46 -4 76 -11 81 -20 4 -8 21 -14 37 -14 17 0 30 -4 30 -10 0 -5 23 -10 50 -10
28 0 50 5 50 10 0 14 37 13 42 -1 5 -14 89 -14 97 -1 3 6 19 12 36 14 27 3 31
9 53 78 29 90 40 240 22 294 -6 20 -22 49 -35 65 -32 37 -49 110 -28 118 9 3
25 -5 39 -20 34 -37 129 -99 191 -125 122 -52 293 -63 418 -27 100 28 105 48
20 80 -89 32 -149 86 -197 178 -28 53 -33 81 -44 215 -4 46 -12 105 -18 130
-11 41 -10 53 12 112 36 97 33 249 -5 278 -24 18 -86 11 -142 -17 -25 -11 -48
-21 -53 -21 -4 0 -27 19 -50 41 -131 127 -306 195 -508 198 -58 1 -108 0 -110
-2z m-96 -928 c-7 -50 -6 -51 14 -40 29 16 40 14 47 -9 5 -16 10 -18 25 -10
29 16 59 12 97 -11 33 -21 35 -24 29 -68 -3 -25 -12 -51 -21 -57 -8 -6 -25
-33 -36 -60 -24 -54 -29 -160 -11 -226 5 -20 8 -39 6 -41 -10 -10 -111 27
-151 55 -127 86 -171 263 -101 401 21 42 85 117 100 117 5 0 6 -22 2 -51z"/>
</g>
</svg>
